<?xml version="1.0" encoding="UTF-8" standalone="no"?>
<!DOCTYPE svg PUBLIC "-//W3C//DTD SVG 1.1//EN"
 "http://www.w3.org/Graphics/SVG/1.1/DTD/svg11.dtd">
<!-- Generated by graphviz version 2.38.0 (20140413.2041)
 -->
<!-- Title: %3 Pages: 1 -->
<svg width="176pt" height="704pt"
 viewBox="0.00 0.00 176.00 704.00" xmlns="http://www.w3.org/2000/svg" xmlns:xlink="http://www.w3.org/1999/xlink">
<g id="graph0" class="graph" transform="scale(1 1) rotate(0) translate(4 700)">
<title>%3</title>
<polygon fill="white" stroke="none" points="-4,4 -4,-700 172,-700 172,4 -4,4"/>
<!-- 101 -->
<g id="node1" class="node"><title>101</title>
<g id="a_node1"><a xlink:title="/home/lw/code/learn/werkzeug_tutorial/venv&#45;27&#45;werk/local/lib/python2.7/site&#45;packages/werkzeug/_reloader.py">
<polygon fill="#fe0700" stroke="#fe0700" points="161,-512 7,-512 7,-460 161,-460 161,-512"/>
<text text-anchor="middle" x="84" y="-500" font-family="Arial" font-size="10.00" fill="#ffffff">_reloader:252:run_with_reloader</text>
<text text-anchor="middle" x="84" y="-489" font-family="Arial" font-size="10.00" fill="#ffffff">99.32%</text>
<text text-anchor="middle" x="84" y="-478" font-family="Arial" font-size="10.00" fill="#ffffff">(0.00%)</text>
<text text-anchor="middle" x="84" y="-467" font-family="Arial" font-size="10.00" fill="#ffffff">1×</text>
</a>
</g>
</g>
<!-- 288 -->
<g id="node2" class="node"><title>288</title>
<g id="a_node2"><a xlink:title="/home/lw/code/learn/werkzeug_tutorial/venv&#45;27&#45;werk/local/lib/python2.7/site&#45;packages/werkzeug/_reloader.py">
<polygon fill="#fe0700" stroke="#fe0700" points="168,-420 0,-420 0,-368 168,-368 168,-420"/>
<text text-anchor="middle" x="84" y="-408" font-family="Arial" font-size="10.00" fill="#ffffff">_reloader:105:restart_with_reloader</text>
<text text-anchor="middle" x="84" y="-397" font-family="Arial" font-size="10.00" fill="#ffffff">99.32%</text>
<text text-anchor="middle" x="84" y="-386" font-family="Arial" font-size="10.00" fill="#ffffff">(0.00%)</text>
<text text-anchor="middle" x="84" y="-375" font-family="Arial" font-size="10.00" fill="#ffffff">1×</text>
</a>
</g>
</g>
<!-- 101&#45;&gt;288 -->
<g id="edge1" class="edge"><title>101&#45;&gt;288</title>
<path fill="none" stroke="#fe0700" stroke-width="3.97" d="M84,-459.93C84,-450.743 84,-440.166 84,-430.253"/>
<polygon fill="#fe0700" stroke="#fe0700" stroke-width="3.97" points="87.5001,-430.248 84,-420.248 80.5001,-430.248 87.5001,-430.248"/>
<text text-anchor="middle" x="101" y="-443" font-family="Arial" font-size="10.00" fill="#fe0700">99.32%</text>
<text text-anchor="middle" x="101" y="-432" font-family="Arial" font-size="10.00" fill="#fe0700">1×</text>
</g>
<!-- 714 -->
<g id="node5" class="node"><title>714</title>
<g id="a_node5"><a xlink:title="/usr/lib/python2.7/subprocess.py">
<polygon fill="#fe0700" stroke="#fe0700" points="136,-328 32,-328 32,-276 136,-276 136,-328"/>
<text text-anchor="middle" x="84" y="-316" font-family="Arial" font-size="10.00" fill="#ffffff">subprocess:515:call</text>
<text text-anchor="middle" x="84" y="-305" font-family="Arial" font-size="10.00" fill="#ffffff">99.32%</text>
<text text-anchor="middle" x="84" y="-294" font-family="Arial" font-size="10.00" fill="#ffffff">(0.00%)</text>
<text text-anchor="middle" x="84" y="-283" font-family="Arial" font-size="10.00" fill="#ffffff">1×</text>
</a>
</g>
</g>
<!-- 288&#45;&gt;714 -->
<g id="edge4" class="edge"><title>288&#45;&gt;714</title>
<path fill="none" stroke="#fe0700" stroke-width="3.97" d="M84,-367.93C84,-358.743 84,-348.166 84,-338.253"/>
<polygon fill="#fe0700" stroke="#fe0700" stroke-width="3.97" points="87.5001,-338.248 84,-328.248 80.5001,-338.248 87.5001,-338.248"/>
<text text-anchor="middle" x="101" y="-351" font-family="Arial" font-size="10.00" fill="#fe0700">99.32%</text>
<text text-anchor="middle" x="101" y="-340" font-family="Arial" font-size="10.00" fill="#fe0700">1×</text>
</g>
<!-- 102 -->
<g id="node3" class="node"><title>102</title>
<g id="a_node3"><a xlink:title="/home/lw/code/learn/werkzeug_tutorial/venv&#45;27&#45;werk/local/lib/python2.7/site&#45;packages/werkzeug/serving.py">
<polygon fill="#fe0600" stroke="#fe0600" points="142,-604 26,-604 26,-552 142,-552 142,-604"/>
<text text-anchor="middle" x="84" y="-592" font-family="Arial" font-size="10.00" fill="#ffffff">serving:605:run_simple</text>
<text text-anchor="middle" x="84" y="-581" font-family="Arial" font-size="10.00" fill="#ffffff">99.38%</text>
<text text-anchor="middle" x="84" y="-570" font-family="Arial" font-size="10.00" fill="#ffffff">(0.00%)</text>
<text text-anchor="middle" x="84" y="-559" font-family="Arial" font-size="10.00" fill="#ffffff">1×</text>
</a>
</g>
</g>
<!-- 102&#45;&gt;101 -->
<g id="edge2" class="edge"><title>102&#45;&gt;101</title>
<path fill="none" stroke="#fe0700" stroke-width="3.97" d="M84,-551.93C84,-542.743 84,-532.166 84,-522.253"/>
<polygon fill="#fe0700" stroke="#fe0700" stroke-width="3.97" points="87.5001,-522.248 84,-512.248 80.5001,-522.248 87.5001,-522.248"/>
<text text-anchor="middle" x="101" y="-535" font-family="Arial" font-size="10.00" fill="#fe0700">99.32%</text>
<text text-anchor="middle" x="101" y="-524" font-family="Arial" font-size="10.00" fill="#fe0700">1×</text>
</g>
<!-- 218 -->
<g id="node4" class="node"><title>218</title>
<g id="a_node4"><a xlink:title="shortly.py">
<polygon fill="#ff0000" stroke="#ff0000" points="134.5,-696 33.5,-696 33.5,-644 134.5,-644 134.5,-696"/>
<text text-anchor="middle" x="84" y="-684" font-family="Arial" font-size="10.00" fill="#ffffff">shortly:1:&lt;module&gt;</text>
<text text-anchor="middle" x="84" y="-673" font-family="Arial" font-size="10.00" fill="#ffffff">100.00%</text>
<text text-anchor="middle" x="84" y="-662" font-family="Arial" font-size="10.00" fill="#ffffff">(0.01%)</text>
<text text-anchor="middle" x="84" y="-651" font-family="Arial" font-size="10.00" fill="#ffffff">1×</text>
</a>
</g>
</g>
<!-- 218&#45;&gt;102 -->
<g id="edge3" class="edge"><title>218&#45;&gt;102</title>
<path fill="none" stroke="#fe0600" stroke-width="3.98" d="M84,-643.93C84,-634.743 84,-624.166 84,-614.253"/>
<polygon fill="#fe0600" stroke="#fe0600" stroke-width="3.98" points="87.5001,-614.248 84,-604.248 80.5001,-614.248 87.5001,-614.248"/>
<text text-anchor="middle" x="101" y="-627" font-family="Arial" font-size="10.00" fill="#fe0600">99.38%</text>
<text text-anchor="middle" x="101" y="-616" font-family="Arial" font-size="10.00" fill="#fe0600">1×</text>
</g>
<!-- 822 -->
<g id="node8" class="node"><title>822</title>
<g id="a_node8"><a xlink:title="/usr/lib/python2.7/subprocess.py">
<polygon fill="#fe0700" stroke="#fe0700" points="139.5,-236 28.5,-236 28.5,-184 139.5,-184 139.5,-236"/>
<text text-anchor="middle" x="84" y="-224" font-family="Arial" font-size="10.00" fill="#ffffff">subprocess:1387:wait</text>
<text text-anchor="middle" x="84" y="-213" font-family="Arial" font-size="10.00" fill="#ffffff">99.31%</text>
<text text-anchor="middle" x="84" y="-202" font-family="Arial" font-size="10.00" fill="#ffffff">(0.00%)</text>
<text text-anchor="middle" x="84" y="-191" font-family="Arial" font-size="10.00" fill="#ffffff">1×</text>
</a>
</g>
</g>
<!-- 714&#45;&gt;822 -->
<g id="edge6" class="edge"><title>714&#45;&gt;822</title>
<path fill="none" stroke="#fe0700" stroke-width="3.97" d="M84,-275.93C84,-266.743 84,-256.166 84,-246.253"/>
<polygon fill="#fe0700" stroke="#fe0700" stroke-width="3.97" points="87.5001,-246.248 84,-236.248 80.5001,-246.248 87.5001,-246.248"/>
<text text-anchor="middle" x="101" y="-259" font-family="Arial" font-size="10.00" fill="#fe0700">99.31%</text>
<text text-anchor="middle" x="101" y="-248" font-family="Arial" font-size="10.00" fill="#fe0700">1×</text>
</g>
<!-- 619 -->
<g id="node6" class="node"><title>619</title>
<g id="a_node6"><a xlink:title="/usr/lib/python2.7/subprocess.py">
<polygon fill="#fe0700" stroke="#fe0700" points="163,-144 5,-144 5,-92 163,-92 163,-144"/>
<text text-anchor="middle" x="84" y="-132" font-family="Arial" font-size="10.00" fill="#ffffff">subprocess:473:_eintr_retry_call</text>
<text text-anchor="middle" x="84" y="-121" font-family="Arial" font-size="10.00" fill="#ffffff">99.32%</text>
<text text-anchor="middle" x="84" y="-110" font-family="Arial" font-size="10.00" fill="#ffffff">(0.00%)</text>
<text text-anchor="middle" x="84" y="-99" font-family="Arial" font-size="10.00" fill="#ffffff">2×</text>
</a>
</g>
</g>
<!-- 633 -->
<g id="node7" class="node"><title>633</title>
<g id="a_node7"><a xlink:title="~">
<polygon fill="#fe0700" stroke="#fe0700" points="135,-52 33,-52 33,-0 135,-0 135,-52"/>
<text text-anchor="middle" x="84" y="-40" font-family="Arial" font-size="10.00" fill="#ffffff">~:0:&lt;posix.waitpid&gt;</text>
<text text-anchor="middle" x="84" y="-29" font-family="Arial" font-size="10.00" fill="#ffffff">99.31%</text>
<text text-anchor="middle" x="84" y="-18" font-family="Arial" font-size="10.00" fill="#ffffff">(99.31%)</text>
<text text-anchor="middle" x="84" y="-7" font-family="Arial" font-size="10.00" fill="#ffffff">2×</text>
</a>
</g>
</g>
<!-- 619&#45;&gt;633 -->
<g id="edge5" class="edge"><title>619&#45;&gt;633</title>
<path fill="none" stroke="#fe0700" stroke-width="3.97" d="M84,-91.93C84,-82.7425 84,-72.1661 84,-62.2526"/>
<polygon fill="#fe0700" stroke="#fe0700" stroke-width="3.97" points="87.5001,-62.2477 84,-52.2477 80.5001,-62.2478 87.5001,-62.2477"/>
<text text-anchor="middle" x="101" y="-75" font-family="Arial" font-size="10.00" fill="#fe0700">99.31%</text>
<text text-anchor="middle" x="101" y="-64" font-family="Arial" font-size="10.00" fill="#fe0700">1×</text>
</g>
<!-- 822&#45;&gt;619 -->
<g id="edge7" class="edge"><title>822&#45;&gt;619</title>
<path fill="none" stroke="#fe0700" stroke-width="3.97" d="M84,-183.93C84,-174.743 84,-164.166 84,-154.253"/>
<polygon fill="#fe0700" stroke="#fe0700" stroke-width="3.97" points="87.5001,-154.248 84,-144.248 80.5001,-154.248 87.5001,-154.248"/>
<text text-anchor="middle" x="101" y="-167" font-family="Arial" font-size="10.00" fill="#fe0700">99.31%</text>
<text text-anchor="middle" x="101" y="-156" font-family="Arial" font-size="10.00" fill="#fe0700">1×</text>
</g>
</g>
</svg>
