<?xml version="1.0" encoding="UTF-8" standalone="no"?>
<!DOCTYPE svg PUBLIC "-//W3C//DTD SVG 1.1//EN"
 "http://www.w3.org/Graphics/SVG/1.1/DTD/svg11.dtd">
<!-- Generated by graphviz version 2.38.0 (20140413.2041)
 -->
<!-- Title: %3 Pages: 1 -->
<svg width="533pt" height="704pt"
 viewBox="0.00 0.00 532.50 704.00" xmlns="http://www.w3.org/2000/svg" xmlns:xlink="http://www.w3.org/1999/xlink">
<g id="graph0" class="graph" transform="scale(1 1) rotate(0) translate(4 700)">
<title>%3</title>
<polygon fill="white" stroke="none" points="-4,4 -4,-700 528.5,-700 528.5,4 -4,4"/>
<!-- 10 -->
<g id="node1" class="node"><title>10</title>
<g id="a_node1"><a xlink:title="/home/lw/code/learn/werkzeug_tutorial/venv&#45;27&#45;werk/lib/python2.7/sre_compile.py">
<polygon fill="#0d0f73" stroke="#0d0f73" points="125,-512 7.10543e-15,-512 7.10543e-15,-460 125,-460 125,-512"/>
<text text-anchor="middle" x="62.5" y="-500" font-family="Arial" font-size="10.00" fill="#ffffff">sre_compile:567:compile</text>
<text text-anchor="middle" x="62.5" y="-489" font-family="Arial" font-size="10.00" fill="#ffffff">0.50%</text>
<text text-anchor="middle" x="62.5" y="-478" font-family="Arial" font-size="10.00" fill="#ffffff">(0.01%)</text>
<text text-anchor="middle" x="62.5" y="-467" font-family="Arial" font-size="10.00" fill="#ffffff">72×</text>
</a>
</g>
</g>
<!-- 11 -->
<g id="node2" class="node"><title>11</title>
<g id="a_node2"><a xlink:title="/home/lw/code/learn/werkzeug_tutorial/venv&#45;27&#45;werk/lib/python2.7/re.py">
<polygon fill="#0d0f73" stroke="#0d0f73" points="105.5,-604 19.5,-604 19.5,-552 105.5,-552 105.5,-604"/>
<text text-anchor="middle" x="62.5" y="-592" font-family="Arial" font-size="10.00" fill="#ffffff">re:230:_compile</text>
<text text-anchor="middle" x="62.5" y="-581" font-family="Arial" font-size="10.00" fill="#ffffff">0.52%</text>
<text text-anchor="middle" x="62.5" y="-570" font-family="Arial" font-size="10.00" fill="#ffffff">(0.01%)</text>
<text text-anchor="middle" x="62.5" y="-559" font-family="Arial" font-size="10.00" fill="#ffffff">193×</text>
</a>
</g>
</g>
<!-- 11&#45;&gt;10 -->
<g id="edge1" class="edge"><title>11&#45;&gt;10</title>
<path fill="none" stroke="#0d0f73" stroke-width="0.5" d="M62.5,-551.93C62.5,-540.712 62.5,-527.422 62.5,-515.798"/>
<polygon fill="#0d0f73" stroke="#0d0f73" stroke-width="0.5" points="63.7251,-515.748 62.5,-512.248 61.2751,-515.748 63.7251,-515.748"/>
<text text-anchor="middle" x="76.5" y="-535" font-family="Arial" font-size="10.00" fill="#0d0f73">0.50%</text>
<text text-anchor="middle" x="76.5" y="-524" font-family="Arial" font-size="10.00" fill="#0d0f73">72×</text>
</g>
<!-- 75 -->
<g id="node3" class="node"><title>75</title>
<g id="a_node3"><a xlink:title="/home/lw/code/learn/werkzeug_tutorial/venv&#45;27&#45;werk/local/lib/python2.7/site&#45;packages/redis/client.py">
<polygon fill="#0d0f73" stroke="#0d0f73" points="229,-512 134,-512 134,-460 229,-460 229,-512"/>
<text text-anchor="middle" x="181.5" y="-500" font-family="Arial" font-size="10.00" fill="#ffffff">client:1:&lt;module&gt;</text>
<text text-anchor="middle" x="181.5" y="-489" font-family="Arial" font-size="10.00" fill="#ffffff">0.52%</text>
<text text-anchor="middle" x="181.5" y="-478" font-family="Arial" font-size="10.00" fill="#ffffff">(0.02%)</text>
<text text-anchor="middle" x="181.5" y="-467" font-family="Arial" font-size="10.00" fill="#ffffff">1×</text>
</a>
</g>
</g>
<!-- 87 -->
<g id="node4" class="node"><title>87</title>
<g id="a_node4"><a xlink:title="/home/lw/code/learn/werkzeug_tutorial/venv&#45;27&#45;werk/local/lib/python2.7/site&#45;packages/redis/__init__.py">
<polygon fill="#0d0f73" stroke="#0d0f73" points="241,-604 136,-604 136,-552 241,-552 241,-604"/>
<text text-anchor="middle" x="188.5" y="-592" font-family="Arial" font-size="10.00" fill="#ffffff">__init__:1:&lt;module&gt;</text>
<text text-anchor="middle" x="188.5" y="-581" font-family="Arial" font-size="10.00" fill="#ffffff">0.53%</text>
<text text-anchor="middle" x="188.5" y="-570" font-family="Arial" font-size="10.00" fill="#ffffff">(0.01%)</text>
<text text-anchor="middle" x="188.5" y="-559" font-family="Arial" font-size="10.00" fill="#ffffff">1×</text>
</a>
</g>
</g>
<!-- 87&#45;&gt;75 -->
<g id="edge2" class="edge"><title>87&#45;&gt;75</title>
<path fill="none" stroke="#0d0f73" stroke-width="0.5" d="M186.55,-551.93C185.678,-540.712 184.644,-527.422 183.74,-515.798"/>
<polygon fill="#0d0f73" stroke="#0d0f73" stroke-width="0.5" points="184.957,-515.642 183.464,-512.248 182.514,-515.832 184.957,-515.642"/>
<text text-anchor="middle" x="200.5" y="-535" font-family="Arial" font-size="10.00" fill="#0d0f73">0.52%</text>
<text text-anchor="middle" x="200.5" y="-524" font-family="Arial" font-size="10.00" fill="#0d0f73">1×</text>
</g>
<!-- 101 -->
<g id="node5" class="node"><title>101</title>
<g id="a_node5"><a xlink:title="/home/lw/code/learn/werkzeug_tutorial/venv&#45;27&#45;werk/local/lib/python2.7/site&#45;packages/werkzeug/_reloader.py">
<polygon fill="#fc1100" stroke="#fc1100" points="392.5,-512 238.5,-512 238.5,-460 392.5,-460 392.5,-512"/>
<text text-anchor="middle" x="315.5" y="-500" font-family="Arial" font-size="10.00" fill="#ffffff">_reloader:252:run_with_reloader</text>
<text text-anchor="middle" x="315.5" y="-489" font-family="Arial" font-size="10.00" fill="#ffffff">98.34%</text>
<text text-anchor="middle" x="315.5" y="-478" font-family="Arial" font-size="10.00" fill="#ffffff">(0.00%)</text>
<text text-anchor="middle" x="315.5" y="-467" font-family="Arial" font-size="10.00" fill="#ffffff">1×</text>
</a>
</g>
</g>
<!-- 286 -->
<g id="node6" class="node"><title>286</title>
<g id="a_node6"><a xlink:title="/home/lw/code/learn/werkzeug_tutorial/venv&#45;27&#45;werk/local/lib/python2.7/site&#45;packages/werkzeug/_reloader.py">
<polygon fill="#fc1100" stroke="#fc1100" points="391.5,-420 223.5,-420 223.5,-368 391.5,-368 391.5,-420"/>
<text text-anchor="middle" x="307.5" y="-408" font-family="Arial" font-size="10.00" fill="#ffffff">_reloader:105:restart_with_reloader</text>
<text text-anchor="middle" x="307.5" y="-397" font-family="Arial" font-size="10.00" fill="#ffffff">98.34%</text>
<text text-anchor="middle" x="307.5" y="-386" font-family="Arial" font-size="10.00" fill="#ffffff">(0.00%)</text>
<text text-anchor="middle" x="307.5" y="-375" font-family="Arial" font-size="10.00" fill="#ffffff">1×</text>
</a>
</g>
</g>
<!-- 101&#45;&gt;286 -->
<g id="edge3" class="edge"><title>101&#45;&gt;286</title>
<path fill="none" stroke="#fc1100" stroke-width="3.93" d="M313.272,-459.93C312.455,-450.743 311.515,-440.166 310.634,-430.253"/>
<polygon fill="#fc1100" stroke="#fc1100" stroke-width="3.93" points="314.072,-429.802 309.744,-420.248 307.169,-430.416 314.072,-429.802"/>
<text text-anchor="middle" x="328.5" y="-443" font-family="Arial" font-size="10.00" fill="#fc1100">98.34%</text>
<text text-anchor="middle" x="328.5" y="-432" font-family="Arial" font-size="10.00" fill="#fc1100">1×</text>
</g>
<!-- 714 -->
<g id="node12" class="node"><title>714</title>
<g id="a_node12"><a xlink:title="/usr/lib/python2.7/subprocess.py">
<polygon fill="#fc1100" stroke="#fc1100" points="359.5,-328 255.5,-328 255.5,-276 359.5,-276 359.5,-328"/>
<text text-anchor="middle" x="307.5" y="-316" font-family="Arial" font-size="10.00" fill="#ffffff">subprocess:515:call</text>
<text text-anchor="middle" x="307.5" y="-305" font-family="Arial" font-size="10.00" fill="#ffffff">98.34%</text>
<text text-anchor="middle" x="307.5" y="-294" font-family="Arial" font-size="10.00" fill="#ffffff">(0.00%)</text>
<text text-anchor="middle" x="307.5" y="-283" font-family="Arial" font-size="10.00" fill="#ffffff">1×</text>
</a>
</g>
</g>
<!-- 286&#45;&gt;714 -->
<g id="edge9" class="edge"><title>286&#45;&gt;714</title>
<path fill="none" stroke="#fc1100" stroke-width="3.93" d="M307.5,-367.93C307.5,-358.743 307.5,-348.166 307.5,-338.253"/>
<polygon fill="#fc1100" stroke="#fc1100" stroke-width="3.93" points="310.965,-338.148 307.5,-328.248 304.035,-338.148 310.965,-338.148"/>
<text text-anchor="middle" x="324.5" y="-351" font-family="Arial" font-size="10.00" fill="#fc1100">98.34%</text>
<text text-anchor="middle" x="324.5" y="-340" font-family="Arial" font-size="10.00" fill="#fc1100">1×</text>
</g>
<!-- 102 -->
<g id="node7" class="node"><title>102</title>
<g id="a_node7"><a xlink:title="/home/lw/code/learn/werkzeug_tutorial/venv&#45;27&#45;werk/local/lib/python2.7/site&#45;packages/werkzeug/serving.py">
<polygon fill="#fd1000" stroke="#fd1000" points="373.5,-604 257.5,-604 257.5,-552 373.5,-552 373.5,-604"/>
<text text-anchor="middle" x="315.5" y="-592" font-family="Arial" font-size="10.00" fill="#ffffff">serving:605:run_simple</text>
<text text-anchor="middle" x="315.5" y="-581" font-family="Arial" font-size="10.00" fill="#ffffff">98.48%</text>
<text text-anchor="middle" x="315.5" y="-570" font-family="Arial" font-size="10.00" fill="#ffffff">(0.01%)</text>
<text text-anchor="middle" x="315.5" y="-559" font-family="Arial" font-size="10.00" fill="#ffffff">1×</text>
</a>
</g>
</g>
<!-- 102&#45;&gt;101 -->
<g id="edge4" class="edge"><title>102&#45;&gt;101</title>
<path fill="none" stroke="#fc1100" stroke-width="3.93" d="M315.5,-551.93C315.5,-542.743 315.5,-532.166 315.5,-522.253"/>
<polygon fill="#fc1100" stroke="#fc1100" stroke-width="3.93" points="318.965,-522.148 315.5,-512.248 312.035,-522.148 318.965,-522.148"/>
<text text-anchor="middle" x="332.5" y="-535" font-family="Arial" font-size="10.00" fill="#fc1100">98.34%</text>
<text text-anchor="middle" x="332.5" y="-524" font-family="Arial" font-size="10.00" fill="#fc1100">1×</text>
</g>
<!-- 104 -->
<g id="node8" class="node"><title>104</title>
<g id="a_node8"><a xlink:title="/home/lw/code/learn/werkzeug_tutorial/venv&#45;27&#45;werk/local/lib/python2.7/site&#45;packages/werkzeug/exceptions.py">
<polygon fill="#0d0f73" stroke="#0d0f73" points="524.5,-420 400.5,-420 400.5,-368 524.5,-368 524.5,-420"/>
<text text-anchor="middle" x="462.5" y="-408" font-family="Arial" font-size="10.00" fill="#ffffff">exceptions:59:&lt;module&gt;</text>
<text text-anchor="middle" x="462.5" y="-397" font-family="Arial" font-size="10.00" fill="#ffffff">0.51%</text>
<text text-anchor="middle" x="462.5" y="-386" font-family="Arial" font-size="10.00" fill="#ffffff">(0.02%)</text>
<text text-anchor="middle" x="462.5" y="-375" font-family="Arial" font-size="10.00" fill="#ffffff">1×</text>
</a>
</g>
</g>
<!-- 110 -->
<g id="node9" class="node"><title>110</title>
<g id="a_node9"><a xlink:title="/home/lw/code/learn/werkzeug_tutorial/venv&#45;27&#45;werk/local/lib/python2.7/site&#45;packages/werkzeug/__init__.py">
<polygon fill="#0d0f73" stroke="#0d0f73" points="497.5,-604 387.5,-604 387.5,-552 497.5,-552 497.5,-604"/>
<text text-anchor="middle" x="442.5" y="-592" font-family="Arial" font-size="10.00" fill="#ffffff">__init__:16:&lt;module&gt;</text>
<text text-anchor="middle" x="442.5" y="-581" font-family="Arial" font-size="10.00" fill="#ffffff">0.53%</text>
<text text-anchor="middle" x="442.5" y="-570" font-family="Arial" font-size="10.00" fill="#ffffff">(0.01%)</text>
<text text-anchor="middle" x="442.5" y="-559" font-family="Arial" font-size="10.00" fill="#ffffff">1×</text>
</a>
</g>
</g>
<!-- 727 -->
<g id="node10" class="node"><title>727</title>
<g id="a_node10"><a xlink:title="~">
<polygon fill="#0d0f73" stroke="#0d0f73" points="506.5,-512 412.5,-512 412.5,-460 506.5,-460 506.5,-512"/>
<text text-anchor="middle" x="459.5" y="-500" font-family="Arial" font-size="10.00" fill="#ffffff">~:0:&lt;__import__&gt;</text>
<text text-anchor="middle" x="459.5" y="-489" font-family="Arial" font-size="10.00" fill="#ffffff">0.51%</text>
<text text-anchor="middle" x="459.5" y="-478" font-family="Arial" font-size="10.00" fill="#ffffff">(0.01%)</text>
<text text-anchor="middle" x="459.5" y="-467" font-family="Arial" font-size="10.00" fill="#ffffff">4×</text>
</a>
</g>
</g>
<!-- 110&#45;&gt;727 -->
<g id="edge5" class="edge"><title>110&#45;&gt;727</title>
<path fill="none" stroke="#0d0f73" stroke-width="0.5" d="M447.235,-551.93C449.354,-540.712 451.865,-527.422 454.06,-515.798"/>
<polygon fill="#0d0f73" stroke="#0d0f73" stroke-width="0.5" points="455.285,-515.914 454.731,-512.248 452.878,-515.46 455.285,-515.914"/>
<text text-anchor="middle" x="466.5" y="-535" font-family="Arial" font-size="10.00" fill="#0d0f73">0.51%</text>
<text text-anchor="middle" x="466.5" y="-524" font-family="Arial" font-size="10.00" fill="#0d0f73">1×</text>
</g>
<!-- 727&#45;&gt;104 -->
<g id="edge13" class="edge"><title>727&#45;&gt;104</title>
<path fill="none" stroke="#0d0f73" stroke-width="0.5" d="M460.336,-459.93C460.71,-448.712 461.153,-435.422 461.54,-423.798"/>
<polygon fill="#0d0f73" stroke="#0d0f73" stroke-width="0.5" points="462.766,-423.787 461.658,-420.248 460.317,-423.705 462.766,-423.787"/>
<text text-anchor="middle" x="474.5" y="-443" font-family="Arial" font-size="10.00" fill="#0d0f73">0.51%</text>
<text text-anchor="middle" x="474.5" y="-432" font-family="Arial" font-size="10.00" fill="#0d0f73">1×</text>
</g>
<!-- 216 -->
<g id="node11" class="node"><title>216</title>
<g id="a_node11"><a xlink:title="shortly.py">
<polygon fill="#ff0000" stroke="#ff0000" points="366,-696 265,-696 265,-644 366,-644 366,-696"/>
<text text-anchor="middle" x="315.5" y="-684" font-family="Arial" font-size="10.00" fill="#ffffff">shortly:1:&lt;module&gt;</text>
<text text-anchor="middle" x="315.5" y="-673" font-family="Arial" font-size="10.00" fill="#ffffff">100.00%</text>
<text text-anchor="middle" x="315.5" y="-662" font-family="Arial" font-size="10.00" fill="#ffffff">(0.03%)</text>
<text text-anchor="middle" x="315.5" y="-651" font-family="Arial" font-size="10.00" fill="#ffffff">1×</text>
</a>
</g>
</g>
<!-- 216&#45;&gt;87 -->
<g id="edge6" class="edge"><title>216&#45;&gt;87</title>
<path fill="none" stroke="#0d0f73" stroke-width="0.5" d="M280.123,-643.93C263.611,-632.228 243.918,-618.273 227.029,-606.304"/>
<polygon fill="#0d0f73" stroke="#0d0f73" stroke-width="0.5" points="227.691,-605.272 224.127,-604.248 226.275,-607.271 227.691,-605.272"/>
<text text-anchor="middle" x="281.5" y="-627" font-family="Arial" font-size="10.00" fill="#0d0f73">0.53%</text>
<text text-anchor="middle" x="281.5" y="-616" font-family="Arial" font-size="10.00" fill="#0d0f73">1×</text>
</g>
<!-- 216&#45;&gt;102 -->
<g id="edge7" class="edge"><title>216&#45;&gt;102</title>
<path fill="none" stroke="#fd1000" stroke-width="3.94" d="M315.5,-643.93C315.5,-634.743 315.5,-624.166 315.5,-614.253"/>
<polygon fill="#fd1000" stroke="#fd1000" stroke-width="3.94" points="318.965,-614.148 315.5,-604.248 312.035,-614.148 318.965,-614.148"/>
<text text-anchor="middle" x="332.5" y="-627" font-family="Arial" font-size="10.00" fill="#fd1000">98.48%</text>
<text text-anchor="middle" x="332.5" y="-616" font-family="Arial" font-size="10.00" fill="#fd1000">1×</text>
</g>
<!-- 216&#45;&gt;110 -->
<g id="edge8" class="edge"><title>216&#45;&gt;110</title>
<path fill="none" stroke="#0d0f73" stroke-width="0.5" d="M350.877,-643.93C367.389,-632.228 387.082,-618.273 403.971,-606.304"/>
<polygon fill="#0d0f73" stroke="#0d0f73" stroke-width="0.5" points="404.725,-607.271 406.873,-604.248 403.309,-605.272 404.725,-607.271"/>
<text text-anchor="middle" x="407.5" y="-627" font-family="Arial" font-size="10.00" fill="#0d0f73">0.53%</text>
<text text-anchor="middle" x="407.5" y="-616" font-family="Arial" font-size="10.00" fill="#0d0f73">1×</text>
</g>
<!-- 822 -->
<g id="node16" class="node"><title>822</title>
<g id="a_node16"><a xlink:title="/usr/lib/python2.7/subprocess.py">
<polygon fill="#fc1100" stroke="#fc1100" points="363,-236 252,-236 252,-184 363,-184 363,-236"/>
<text text-anchor="middle" x="307.5" y="-224" font-family="Arial" font-size="10.00" fill="#ffffff">subprocess:1387:wait</text>
<text text-anchor="middle" x="307.5" y="-213" font-family="Arial" font-size="10.00" fill="#ffffff">98.31%</text>
<text text-anchor="middle" x="307.5" y="-202" font-family="Arial" font-size="10.00" fill="#ffffff">(0.00%)</text>
<text text-anchor="middle" x="307.5" y="-191" font-family="Arial" font-size="10.00" fill="#ffffff">1×</text>
</a>
</g>
</g>
<!-- 714&#45;&gt;822 -->
<g id="edge12" class="edge"><title>714&#45;&gt;822</title>
<path fill="none" stroke="#fc1100" stroke-width="3.93" d="M307.5,-275.93C307.5,-266.743 307.5,-256.166 307.5,-246.253"/>
<polygon fill="#fc1100" stroke="#fc1100" stroke-width="3.93" points="310.965,-246.148 307.5,-236.248 304.035,-246.148 310.965,-246.148"/>
<text text-anchor="middle" x="324.5" y="-259" font-family="Arial" font-size="10.00" fill="#fc1100">98.31%</text>
<text text-anchor="middle" x="324.5" y="-248" font-family="Arial" font-size="10.00" fill="#fc1100">1×</text>
</g>
<!-- 591 -->
<g id="node13" class="node"><title>591</title>
<g id="a_node13"><a xlink:title="/home/lw/code/learn/werkzeug_tutorial/venv&#45;27&#45;werk/lib/python2.7/re.py">
<polygon fill="#0d0f73" stroke="#0d0f73" points="102.5,-696 22.5,-696 22.5,-644 102.5,-644 102.5,-696"/>
<text text-anchor="middle" x="62.5" y="-684" font-family="Arial" font-size="10.00" fill="#ffffff">re:192:compile</text>
<text text-anchor="middle" x="62.5" y="-673" font-family="Arial" font-size="10.00" fill="#ffffff">0.51%</text>
<text text-anchor="middle" x="62.5" y="-662" font-family="Arial" font-size="10.00" fill="#ffffff">(0.00%)</text>
<text text-anchor="middle" x="62.5" y="-651" font-family="Arial" font-size="10.00" fill="#ffffff">75×</text>
</a>
</g>
</g>
<!-- 591&#45;&gt;11 -->
<g id="edge10" class="edge"><title>591&#45;&gt;11</title>
<path fill="none" stroke="#0d0f73" stroke-width="0.5" d="M62.5,-643.93C62.5,-632.712 62.5,-619.422 62.5,-607.798"/>
<polygon fill="#0d0f73" stroke="#0d0f73" stroke-width="0.5" points="63.7251,-607.748 62.5,-604.248 61.2751,-607.748 63.7251,-607.748"/>
<text text-anchor="middle" x="76.5" y="-627" font-family="Arial" font-size="10.00" fill="#0d0f73">0.50%</text>
<text text-anchor="middle" x="76.5" y="-616" font-family="Arial" font-size="10.00" fill="#0d0f73">75×</text>
</g>
<!-- 619 -->
<g id="node14" class="node"><title>619</title>
<g id="a_node14"><a xlink:title="/usr/lib/python2.7/subprocess.py">
<polygon fill="#fc1100" stroke="#fc1100" points="386.5,-144 228.5,-144 228.5,-92 386.5,-92 386.5,-144"/>
<text text-anchor="middle" x="307.5" y="-132" font-family="Arial" font-size="10.00" fill="#ffffff">subprocess:473:_eintr_retry_call</text>
<text text-anchor="middle" x="307.5" y="-121" font-family="Arial" font-size="10.00" fill="#ffffff">98.33%</text>
<text text-anchor="middle" x="307.5" y="-110" font-family="Arial" font-size="10.00" fill="#ffffff">(0.00%)</text>
<text text-anchor="middle" x="307.5" y="-99" font-family="Arial" font-size="10.00" fill="#ffffff">2×</text>
</a>
</g>
</g>
<!-- 633 -->
<g id="node15" class="node"><title>633</title>
<g id="a_node15"><a xlink:title="~">
<polygon fill="#fc1200" stroke="#fc1200" points="358.5,-52 256.5,-52 256.5,-0 358.5,-0 358.5,-52"/>
<text text-anchor="middle" x="307.5" y="-40" font-family="Arial" font-size="10.00" fill="#ffffff">~:0:&lt;posix.waitpid&gt;</text>
<text text-anchor="middle" x="307.5" y="-29" font-family="Arial" font-size="10.00" fill="#ffffff">98.30%</text>
<text text-anchor="middle" x="307.5" y="-18" font-family="Arial" font-size="10.00" fill="#ffffff">(98.31%)</text>
<text text-anchor="middle" x="307.5" y="-7" font-family="Arial" font-size="10.00" fill="#ffffff">2×</text>
</a>
</g>
</g>
<!-- 619&#45;&gt;633 -->
<g id="edge11" class="edge"><title>619&#45;&gt;633</title>
<path fill="none" stroke="#fc1200" stroke-width="3.93" d="M307.5,-91.93C307.5,-82.7425 307.5,-72.1661 307.5,-62.2526"/>
<polygon fill="#fc1200" stroke="#fc1200" stroke-width="3.93" points="310.965,-62.1477 307.5,-52.2477 304.035,-62.1478 310.965,-62.1477"/>
<text text-anchor="middle" x="324.5" y="-75" font-family="Arial" font-size="10.00" fill="#fc1200">98.30%</text>
<text text-anchor="middle" x="324.5" y="-64" font-family="Arial" font-size="10.00" fill="#fc1200">1×</text>
</g>
<!-- 822&#45;&gt;619 -->
<g id="edge14" class="edge"><title>822&#45;&gt;619</title>
<path fill="none" stroke="#fc1200" stroke-width="3.93" d="M307.5,-183.93C307.5,-174.743 307.5,-164.166 307.5,-154.253"/>
<polygon fill="#fc1200" stroke="#fc1200" stroke-width="3.93" points="310.965,-154.148 307.5,-144.248 304.035,-154.148 310.965,-154.148"/>
<text text-anchor="middle" x="324.5" y="-167" font-family="Arial" font-size="10.00" fill="#fc1200">98.31%</text>
<text text-anchor="middle" x="324.5" y="-156" font-family="Arial" font-size="10.00" fill="#fc1200">1×</text>
</g>
</g>
</svg>
